<?xml version="1.0" standalone="no"?><!DOCTYPE svg PUBLIC "-//W3C//DTD SVG 1.1//EN" "http://www.w3.org/Graphics/SVG/1.1/DTD/svg11.dtd"><svg t="1597817846653" class="icon" viewBox="0 0 1024 1024" version="1.1" xmlns="http://www.w3.org/2000/svg" p-id="3442" xmlns:xlink="http://www.w3.org/1999/xlink" width="200" height="200"><defs><style type="text/css"></style></defs><path d="M769.599428 960.744327H275.993357c-14.093996 0-25.51921-11.546987-25.51921-25.789362s11.425214-25.790386 25.51921-25.790387h493.606071c43.417859 0 78.743412-35.700083 78.743412-79.580476V212.83848c0-14.243399 11.425214-25.789363 25.51921-25.789363 14.086833 0 25.51921 11.546987 25.51921 25.789363v616.745622c-0.001023 72.322166-58.227146 131.160225-129.781832 131.160225" p-id="3443" fill="#ffffff"></path><path d="M699.902042 511.50165H275.24532c-13.680581 0-24.771173-11.174504-24.771173-24.957415s11.090593-24.957415 24.771173-24.957415h424.656722c13.680581 0 24.771173 11.174504 24.771174 24.957415s-11.089569 24.957415-24.771174 24.957415M699.902042 636.290771H275.24532c-13.680581 0-24.771173-11.17348-24.771173-24.957415s11.090593-24.957415 24.771173-24.957415h424.656722c13.680581 0 24.771173 11.17348 24.771174 24.957415s-11.089569 24.957415-24.771174 24.957415M473.726813 736.122477H251.841284c-14.539134 0-26.325575-11.17348-26.325576-24.957415 0-13.783934 11.786441-24.958438 26.325576-24.958438h221.886553c14.539134 0 26.325575 11.17348 26.325575 24.958438-0.001023 13.783934-11.787464 24.957415-26.326599 24.957415" p-id="3444" fill="#ffffff"></path><path d="M250.473123 361.754091h49.915853v-99.831706h-49.915853z" p-id="3445" fill="#ffffff"></path><path d="M350.304829 361.754091h49.915853v-99.831706h-49.915853z" p-id="3446" fill="#ffffff"></path><path d="M425.179121 361.754091h49.915853v-99.831706h-49.915853z" p-id="3447" fill="#ffffff"></path><path d="M549.968242 361.754091h49.915853v-99.831706h-49.915853z" p-id="3448" fill="#ffffff"></path><path d="M624.842533 361.754091h49.915853v-99.831706h-49.915853z" p-id="3449" fill="#ffffff"></path><path d="M193.069739 112.624057c-9.774621 0-17.732873 8.072863-17.732873 17.987676v661.947104c0 9.921977 7.958252 17.987676 17.732873 17.987676h539.091008c9.781784 0 17.732873-8.065699 17.732873-17.987676V130.611733c0-9.914814-7.951089-17.987676-17.732873-17.987676H193.069739z m539.091008 748.288564H193.069739c-37.155225 0-67.38676-30.665417-67.38676-68.352761V130.611733c0-37.687344 30.231535-68.352761 67.38676-68.352761h539.091008c37.155225 0 67.38676 30.665417 67.38676 68.352761v661.947104c0 37.688367-30.231535 68.353784-67.38676 68.353784z" p-id="3450" fill="#ffffff"></path></svg>