<?xml version="1.0" standalone="no"?><!DOCTYPE svg PUBLIC "-//W3C//DTD SVG 1.1//EN" "http://www.w3.org/Graphics/SVG/1.1/DTD/svg11.dtd"><svg t="1597645743634" class="icon" viewBox="0 0 1024 1024" version="1.1" xmlns="http://www.w3.org/2000/svg" p-id="2576" xmlns:xlink="http://www.w3.org/1999/xlink" width="200" height="200"><defs><style type="text/css"></style></defs><path d="M106.24 535.893333l165.546667 115.626667c20.053333 14.08 45.653333 0 45.653333-22.613333V395.093333c0-5.973333-2.133333-11.946667-5.546667-17.066666-9.386667-12.373333-27.306667-14.933333-40.106666-5.546667l-165.546667 115.626667c-14.08 11.093333-14.08 33.706667 0 47.786666zM129.28 213.333333h785.066667c18.773333 0 34.133333-15.36 34.133333-34.133333s-15.36-34.133333-34.133333-34.133333h-785.066667c-18.773333 0-34.133333 15.36-34.133333 34.133333s15.36 34.133333 34.133333 34.133333zM129.28 878.933333h785.066667c18.773333 0 34.133333-15.36 34.133333-34.133333s-15.36-34.133333-34.133333-34.133333h-785.066667c-18.773333 0-34.133333 15.36-34.133333 34.133333s15.36 34.133333 34.133333 34.133333zM419.413333 435.2h494.933334c18.773333 0 34.133333-15.36 34.133333-34.133333s-15.36-34.133333-34.133333-34.133334h-494.933334c-18.773333 0-34.133333 15.36-34.133333 34.133334s15.36 34.133333 34.133333 34.133333zM419.413333 657.066667h495.36c18.773333 0 34.133333-15.36 34.133334-34.133334s-15.36-34.133333-34.133334-34.133333H419.413333c-18.773333 0-34.133333 15.36-34.133333 34.133333v0.426667c0 18.346667 15.36 33.706667 34.133333 33.706667z" fill="#515151" p-id="2577"></path></svg>